<svg id="Layer_1" enable-background="new 0 0 512 512" height="512" viewBox="0 0 512 512" width="512" xmlns="http://www.w3.org/2000/svg"><path d="m437.26 328.19c-20.211-86.33-132.993-109.245-185.34-37.4.327.44-7.169-2.79-19.92-2.79-39.765 0-72 32.235-72 72-30.93 0-56 25.07-56 56s25.07 56 56 56h272c39.76 0 72-32.24 72-72 0-37.99-29.43-69.12-66.74-71.81z" fill="#add9ff"/><path d="m504 192c0 39.76-32.24 72-72 72h-40.56c-16.04-10.13-35.051-16-55.421-16-31.119-74.683-132.281-86.84-180.1-21.21-15.153-4.357-32.106-3.74-47.63 2.74-15.291-36.738 11.696-77.53 51.711-77.53 0-47.908 45.995-82.416 91.92-69.21 52.41-71.932 165.158-48.807 185.34 37.4 37.31 2.69 66.74 33.82 66.74 71.81z" fill="#add9ff"/><path d="m417.1 78.891c-46.079-37.029-114.105-28.241-149.18 19.899-46.025-13.228-91.92 21.386-91.92 69.21-45.06 0-70.917 50.225-46.779 86.779-15.201-10.009-25.221-27.218-25.221-46.779 0-30.93 25.07-56 56-56 0-47.879 45.957-82.42 91.92-69.21 40.37-55.407 122.24-57.318 165.18-3.899z" fill="#d6ecff"/><path d="m417.1 286.891c-46.079-37.029-114.105-28.24-149.18 19.899-46.025-13.228-91.92 21.386-91.92 69.21-45.06 0-70.917 50.225-46.779 86.779-15.201-10.009-25.221-27.219-25.221-46.779 0-30.93 25.07-56 56-56 0-47.879 45.957-82.42 91.92-69.21 40.37-55.407 122.24-57.318 165.18-3.899z" fill="#d6ecff"/><path d="m336.02 248c-33.856 0-64.758 16.245-84.1 42.79-46.021-13.234-91.92 21.386-91.92 69.21-28.21 0-51.55 20.86-55.43 48h-40.57c-30.93 0-56-25.07-56-56s25.07-56 56-56c0-47.908 45.995-82.416 91.92-69.21 47.793-65.595 148.96-53.522 180.1 21.21z" fill="#5989b3"/><path d="m199.49 87.75c-23.43 11.87-39.49 36.19-39.49 64.25-39.967 0-67.023 40.742-51.71 77.53-8.53 3.559-16.22 8.71-22.71 15.08-44.65-11.69-77.58-52.3-77.58-100.61 0-57.44 46.56-104 104-104 36.72 0 68.99 19.02 87.49 47.75z" fill="#ffdf81"/><path d="m321.1 222.891c-46.079-37.029-114.105-28.24-149.18 19.899-46.025-13.228-91.92 21.386-91.92 69.21-45.06 0-70.917 50.225-46.779 86.779-15.201-10.009-25.221-27.219-25.221-46.779 0-30.93 25.07-56 56-56 0-47.879 45.957-82.42 91.92-69.21 40.37-55.407 122.24-57.318 165.18-3.899z" fill="#436786"/><path d="m112 40c-57.44 0-104 46.56-104 104 0 48.31 32.93 88.92 77.58 100.61 6.5-6.37 14.18-11.53 22.71-15.08-1.83-4.38-3.11-9.05-3.771-13.91-36.249-3.75-64.519-34.39-64.519-71.62 0-39.76 32.24-72 72-72 26.85 0 50.27 14.7 62.64 36.49 6.57-8.66 15.07-15.79 24.851-20.74-18.501-28.73-50.771-47.75-87.491-47.75z" fill="#ffcd76"/><path d="m120 72.002c0-4.418-3.582-8-8-8-44.112 0-80 35.888-80 80 0 4.418 3.582 8 8 8s8-3.582 8-8c0-35.29 28.71-64 64-64 4.418 0 8-3.582 8-8z"/><path d="m443.602 320.839c-5.348-18.449-15.504-35.347-29.254-48.839h17.652c44.112 0 80-35.888 80-80 0-39.795-29.603-73.503-68.398-79.161-25.196-86.924-138.055-109.487-194.836-39.079-14.962-3.19-31.331-2.149-46.483 3.943-21.088-28.742-54.342-45.703-90.283-45.703-61.757 0-112 50.243-112 112 0 46.691 28.906 88.014 71.64 104.485-8.665 11.673-13.941 25.39-15.292 39.97-31.696 3.793-56.348 30.844-56.348 63.545 0 35.29 28.71 64 64 64h32c0 35.29 28.71 64 64 64h88c4.418 0 8-3.582 8-8s-3.582-8-8-8h-88c-26.467 0-48-21.533-48-48s21.533-48 48-48c4.418 0 8-3.582 8-8 0-35.29 28.71-64 64-64s64 28.71 64 64c0 4.418 3.582 8 8 8s8-3.582 8-8c0-32.284-19.233-60.143-46.834-72.772 52.11-56.849 146.751-32.181 164.305 42.786.798 3.41 3.721 5.904 7.214 6.156 33.26 2.397 59.315 30.434 59.315 63.83 0 35.29-28.71 64-64 64h-136c-4.418 0-8 3.582-8 8s3.582 8 8 8h136c44.112 0 80-35.888 80-80 0-39.795-29.603-73.503-68.398-79.161zm-427.602-176.839c0-52.935 43.065-96 96-96 29.99 0 57.793 13.783 75.923 37.243-19.507 12.919-33.263 34.269-35.575 59.212-35.304 4.225-60.72 36.892-55.755 72.242 1.338 9.843 2.705 8.19.923 9.169-5.053 2.777-9.745 6.049-14.064 9.817-39.928-12.392-67.452-49.49-67.452-91.683zm232.764 137.781c-47.186-10.104-91.983 23.553-96.411 70.673-26.343 3.149-47.806 22.372-54.311 47.546h-34.042c-26.468 0-48-21.532-48-48s21.532-48 48-48c4.418 0 8-3.582 8-8 0-42.624 40.912-73.253 81.709-61.521 3.229.926 6.695-.26 8.676-2.977 41.186-56.516 126.969-51.403 161.182 9.207-29.206 3.291-56.249 18.057-74.803 41.072zm144.896-25.781c-15.821-9.485-33.881-14.986-52.397-15.865-35.417-75.036-136.98-86.428-188.501-22.375-12.747-2.719-26.376-2.342-39.404 1.508-7.281-30.374 15.742-59.268 46.642-59.268 4.418 0 8-3.582 8-8 0-42.746 41.043-73.215 81.709-61.521 3.227.925 6.697-.261 8.677-2.977 31.821-43.675 94.468-53.091 137.669-18.403 16.698 13.406 28.565 32.199 33.416 52.915.798 3.41 3.721 5.904 7.214 6.156 33.26 2.397 59.315 30.435 59.315 63.83 0 35.29-28.71 64-64 64z"/><circle cx="272" cy="472" r="8"/><g fill="#d6ecff"><circle cx="144" cy="440" r="8"/><circle cx="132" cy="428" r="4"/></g></svg>